# xmcd
#
# Track frame offsets: 
#        150
#        9096
#        20889
#        31034
#        39437
#        48885
#        60426
#        72411
#        80654
#        93598
#        105827
#        116659
#        127286
#        139169
#        149581
#        161252
#        173642
#        186788
#        198714
#        210340
#
# Disc length: 2937 seconds
#
# Revision: 2
# Processed by: cddbd v1.5.2PL0 Copyright (c) Steve Scherf et al.
# Submitted via: ExactAudioCopy v1.1
#
DISCID=110b7714
DTITLE=Various Artist - Rhythm and Blues Goes Rock 'n' Roll - Vol 2 - D
DTITLE=isc 2
DYEAR=2002
DGENRE=R&B
TTITLE0=Harmonica Slim - Going Back Home (mono)
TTITLE1=Jimmy Anthony - Before Day In The Morning (mono)
TTITLE2=Chris Allen - Tick Tock (mono)
TTITLE3=Joe Hughes - Make Me Dance Little Ant (mono)
TTITLE4=Tony Allan - Rockin' Shoes (mono)
TTITLE5=Freddie Hall - She's An Upsetter (mono)
TTITLE6=The Concords - You Can't Stay Here (mono)
TTITLE7=Lowell Fulson - Cash Box Boogie (mono)
TTITLE8=Lee Christy - My Heart Goes Diddely Bum (mono)
TTITLE9=Mr. Rain - Who Dat (mono)
TTITLE10=The Bellnotes - Too Young Or Too Old (mono)
TTITLE11=Tex Curtis - Shake Pretty Baby (mono)
TTITLE12=Oliver Jones - What I Say (mono)
TTITLE13=Jesse Allen - Let's Party (mono)
TTITLE14=Ray Snead - I'm A Good Rockin' Baby (mono)
TTITLE15=H-Bomb Ferguson - I Love My Baby (mono)
TTITLE16=Julian Dash - Preachin' (mono)
TTITLE17=Joan Shaw - You Drive Me Crazy (mono)
TTITLE18=Rufus Thomas - No More Dogging Around (mono)
TTITLE19=The Royals - All Night Long (mono)
EXTD=YEAR: 2002
EXTT0=
EXTT1=
EXTT2=
EXTT3=
EXTT4=
EXTT5=
EXTT6=
EXTT7=
EXTT8=
EXTT9=
EXTT10=
EXTT11=
EXTT12=
EXTT13=
EXTT14=
EXTT15=
EXTT16=
EXTT17=
EXTT18=
EXTT19=
PLAYORDER=
